<svg width="17" height="15" viewBox="0 0 17 15" fill="none" xmlns="http://www.w3.org/2000/svg">
<path d="M11.1685 3.13965H5.56635" stroke="#333333" stroke-width="0.919209" stroke-linecap="round" stroke-linejoin="round"/>
<path d="M12.9205 3.13965H15.1838C15.5716 3.13965 15.8835 3.45393 15.8835 3.83268V13.2894C15.8835 13.6762 15.5716 13.9824 15.1838 13.9824H1.55622C1.16834 13.9824 0.856445 13.6721 0.856445 13.2894V3.83268C0.856445 3.4499 1.16834 3.13965 1.55622 3.13965H3.81948" stroke="#333333" stroke-width="0.919209" stroke-linecap="round" stroke-linejoin="round"/>
<path d="M5.56661 1.86629V4.15088C5.56661 4.63037 5.17474 5.01717 4.6909 5.01717C4.20706 5.01717 3.81519 4.63037 3.81519 4.15088V1.86629C3.81519 1.38681 4.20706 1 4.6909 1C5.17474 1 5.56661 1.38681 5.56661 1.86629Z" stroke="#333333" stroke-width="0.919209" stroke-linecap="round" stroke-linejoin="round"/>
<path d="M12.9194 4.15088V1.86629C12.9194 1.38681 12.5275 1 12.0437 1C11.5598 1 11.168 1.38681 11.168 1.86629V4.15088C11.168 4.63037 11.5598 5.01717 12.0437 5.01717C12.5275 5.01717 12.9194 4.63037 12.9194 4.15088Z" stroke="#333333" stroke-width="0.919209" stroke-linecap="round" stroke-linejoin="round"/>
<path d="M15.8826 6.27438H0.851562" stroke="#333333" stroke-width="0.919209" stroke-linecap="round" stroke-linejoin="round"/>
<path d="M15.8826 9.96109H0.851562" stroke="#333333" stroke-width="0.919209" stroke-linecap="round" stroke-linejoin="round"/>
<path d="M4.35529 13.9823V6.27435" stroke="#333333" stroke-width="0.919209" stroke-linecap="round" stroke-linejoin="round"/>
<path d="M8.36993 13.9823V6.27435" stroke="#333333" stroke-width="0.919209" stroke-linecap="round" stroke-linejoin="round"/>
<path d="M12.3846 13.9823V6.27435" stroke="#333333" stroke-width="0.919209" stroke-linecap="round" stroke-linejoin="round"/>
<path d="M5.36688 11.8992L6.13063 12.6567L7.31025 11.4882" stroke="#333333" stroke-width="0.919209" stroke-linecap="round" stroke-linejoin="round"/>
<path d="M9.40607 7.94648L10.1698 8.70398L11.3494 7.53549" stroke="#333333" stroke-width="0.919209" stroke-linecap="round" stroke-linejoin="round"/>
</svg>
