<svg width="19" height="13" viewBox="0 0 19 13" fill="none" xmlns="http://www.w3.org/2000/svg">
<path d="M1.70978 9.77676C1.70978 8.03596 3.10639 6.6228 4.83395 6.6228C6.56152 6.6228 7.95813 8.03596 7.95813 9.77676H1.70978Z" stroke="#333333" stroke-width="0.919209" stroke-linecap="round" stroke-linejoin="round"/>
<path d="M7.08629 9.77679C7.08629 11.0344 6.07689 12.0537 4.83251 12.0537C3.58814 12.0537 2.57874 11.0344 2.57874 9.77679" stroke="#333333" stroke-width="0.919209" stroke-linecap="round" stroke-linejoin="round"/>
<path d="M15.3306 12.0835C16.5936 12.0835 17.6174 11.0507 17.6174 9.77676C17.6174 8.50279 16.5936 7.47003 15.3306 7.47003C14.0676 7.47003 13.0437 8.50279 13.0437 9.77676C13.0437 11.0507 14.0676 12.0835 15.3306 12.0835Z" stroke="#333333" stroke-width="0.919209" stroke-linecap="round" stroke-linejoin="round"/>
<path d="M13.0445 9.77344H7.95782" stroke="#333333" stroke-width="0.919209" stroke-linecap="round" stroke-linejoin="round"/>
<path d="M14.9275 1.24493H13.7262C13.2297 1.24493 12.826 1.652 12.826 2.15505C12.826 2.65809 13.2297 3.06516 13.7262 3.06516H14.9275" stroke="#333333" stroke-width="0.919209" stroke-linecap="round" stroke-linejoin="round"/>
<path d="M12.8263 2.15502L11.1815 1" stroke="#333333" stroke-width="0.919209" stroke-linecap="round" stroke-linejoin="round"/>
<path d="M13.7262 3.06512L15.3313 7.46677" stroke="#333333" stroke-width="0.919209" stroke-linecap="round" stroke-linejoin="round"/>
<path d="M4.83315 6.62278C4.83315 6.62278 5.18727 4.59406 1.1629 4.59406H8.03013C8.52325 4.59406 8.94687 4.9581 9.01968 5.45453L9.3076 7.37404C9.35394 7.69506 9.62863 7.93004 9.94634 7.93004H11.0319C11.3893 7.93004 11.6805 7.6388 11.6805 7.27807V5.25265C11.6805 4.89191 11.9718 4.60067 12.3292 4.60067H14.2851" stroke="#333333" stroke-width="0.919209" stroke-linecap="round" stroke-linejoin="round"/>
</svg>
