<svg width="13" height="17" viewBox="0 0 13 17" fill="none" xmlns="http://www.w3.org/2000/svg">
<path d="M9.52372 6.62198H3.0666C2.74619 6.62198 2.48645 6.88172 2.48645 7.20213V12.7357C2.48645 13.0561 2.74619 13.3158 3.0666 13.3158H9.52372C9.84413 13.3158 10.1039 13.0561 10.1039 12.7357V7.20213C10.1039 6.88172 9.84413 6.62198 9.52372 6.62198Z" stroke="#333333" stroke-width="0.919209" stroke-linecap="round" stroke-linejoin="round"/>
<path d="M7.28868 1.9834H8.79239C8.95369 1.9834 9.08116 2.11348 9.08116 2.27217V4.18693C9.08116 4.34823 8.95108 4.47571 8.79239 4.47571H3.79476C3.63346 4.47571 3.50598 4.34563 3.50598 4.18693V2.27217C3.50598 2.11087 3.63606 1.9834 3.79476 1.9834H5.32188C5.32188 1.43967 5.76155 1 6.30528 1C6.84901 1 7.28868 1.43967 7.28868 1.9834Z" stroke="#333333" stroke-width="0.919209" stroke-linecap="round" stroke-linejoin="round"/>
<path d="M9.08178 2.74042H10.8613C11.3426 2.74042 11.7302 3.13065 11.7302 3.60934V14.6973C11.7302 15.1786 11.34 15.5662 10.8613 15.5662H1.72452C1.24323 15.5662 0.855591 15.176 0.855591 14.6973V3.60934C0.855591 3.12805 1.24583 2.74042 1.72452 2.74042H3.504" stroke="#333333" stroke-width="0.919209" stroke-linecap="round" stroke-linejoin="round"/>
</svg>
