<svg width="13" height="15" viewBox="0 0 13 15" fill="none" xmlns="http://www.w3.org/2000/svg">
<g clip-path="url(#clip0_2_1489)">
<path d="M11.6898 5.88374L8.16689 6.97556L4.64856 5.53847L8.16689 4.44666L11.6898 5.88374Z" stroke="#333333" stroke-width="0.919209" stroke-linecap="round" stroke-linejoin="round"/>
<path d="M11.6901 5.88379V10.2277L8.16714 11.4922L4.6488 10.2277V5.53851" stroke="#333333" stroke-width="0.919209" stroke-linecap="round" stroke-linejoin="round"/>
<path d="M8.16711 11.4921V6.97552" stroke="#333333" stroke-width="0.919209" stroke-linecap="round" stroke-linejoin="round"/>
<path d="M9.64152 10.9648V13.2651C9.64152 13.8623 9.16384 14.3429 8.58051 14.3429H2.43491C1.84699 14.3429 1.3739 13.8577 1.3739 13.2651V1.54443C1.3739 0.947199 1.85159 0.466614 2.43491 0.466614H8.57592C9.16383 0.466614 9.63693 0.951864 9.63693 1.54443V5.0485" stroke="#333333" stroke-width="0.919209" stroke-linecap="round" stroke-linejoin="round"/>
<path d="M4.42847 1.88965H6.58723" stroke="#333333" stroke-width="0.919209" stroke-linecap="round" stroke-linejoin="round"/>
<path d="M5.50877 13.3444C5.81571 13.3444 6.06454 13.0916 6.06454 12.7798C6.06454 12.468 5.81571 12.2152 5.50877 12.2152C5.20183 12.2152 4.953 12.468 4.953 12.7798C4.953 13.0916 5.20183 13.3444 5.50877 13.3444Z" fill="#333333"/>
</g>
<defs>
<clipPath id="clip0_2_1489">
<rect width="11.2348" height="14.8095" fill="white" transform="translate(0.914795)"/>
</clipPath>
</defs>
</svg>
